<?xml version="1.0" standalone="no"?>
<!DOCTYPE svg PUBLIC "-//W3C//DTD SVG 20010904//EN"
 "http://www.w3.org/TR/2001/REC-SVG-20010904/DTD/svg10.dtd">
<svg version="1.0" xmlns="http://www.w3.org/2000/svg"
 width="607.000000pt" height="715.000000pt" viewBox="0 0 607.000000 715.000000"
 preserveAspectRatio="xMidYMid meet">

<g transform="translate(0.000000,715.000000) scale(0.100000,-0.100000)"
fill="#000000" stroke="none">
<path d="M4522 7129 c-315 -37 -611 -187 -836 -426 -164 -173 -280 -392 -338
-634 -29 -126 -33 -429 -5 -555 93 -434 355 -775 738 -961 351 -171 754 -190
1104 -51 191 76 399 218 521 358 21 24 47 54 57 65 70 77 180 283 226 422 45
134 61 225 68 372 25 565 -315 1097 -838 1310 -231 94 -462 127 -697 100z
m384 -244 c239 -50 442 -162 608 -335 137 -143 222 -296 274 -489 22 -85 25
-116 26 -266 0 -140 -4 -188 -22 -274 -28 -128 -74 -246 -138 -353 -58 -97
-217 -264 -313 -328 -414 -277 -976 -256 -1366 51 -295 231 -452 610 -415
1001 49 519 465 942 991 1008 95 11 258 5 355 -15z"/>
<path d="M4494 6530 c-57 -18 -64 -50 -64 -284 l0 -206 -214 0 c-118 0 -226
-4 -241 -10 -46 -17 -55 -60 -55 -253 0 -102 5 -187 11 -206 20 -56 43 -61
284 -61 l215 0 0 -204 c0 -113 4 -216 10 -230 20 -55 47 -61 250 -61 266 0
260 -7 260 295 l0 197 122 6 c66 4 165 7 219 7 89 0 100 2 126 24 l28 24 3
184 c2 115 -1 197 -8 220 -18 63 -38 68 -285 68 l-215 0 0 210 c0 218 -4 245
-43 270 -27 17 -354 25 -403 10z"/>
<path d="M1820 7030 c-129 -17 -289 -81 -392 -156 -85 -63 -180 -175 -225
-265 -113 -225 -116 -438 -13 -699 70 -176 86 -271 69 -417 -25 -224 -100
-364 -318 -597 -88 -92 -125 -144 -171 -236 -104 -206 -133 -425 -90 -677 26
-151 61 -293 156 -629 114 -406 133 -488 146 -616 11 -105 10 -135 -10 -290
-12 -95 -44 -274 -72 -398 -62 -274 -80 -387 -80 -505 2 -348 180 -618 502
-757 142 -61 259 -81 493 -82 203 -1 267 5 455 46 400 87 834 316 1285 678
109 87 129 100 154 93 12 -3 20 -11 18 -17 -2 -6 6 -23 18 -37 15 -18 26 -53
34 -105 53 -333 367 -969 647 -1311 l35 -43 215 0 c184 0 214 2 214 15 0 8 -7
59 -14 113 -15 95 -40 311 -71 607 -34 321 -107 884 -131 1004 -90 459 -248
678 -538 746 -89 21 -287 19 -429 -5 -381 -64 -828 -214 -1558 -521 -133 -56
-157 -55 -121 3 57 93 126 313 158 503 21 122 24 428 6 462 -7 13 -54 54 -105
92 -304 226 -501 417 -590 569 -61 105 -91 212 -59 212 11 0 144 -103 272
-210 251 -211 519 -414 686 -523 312 -202 585 -280 819 -233 235 47 386 134
725 418 365 305 412 340 547 407 88 44 169 66 316 87 233 33 347 72 493 169
83 55 209 170 238 216 15 24 15 27 -1 42 -48 43 -112 44 -458 12 -482 -46
-689 -110 -1205 -378 -294 -153 -436 -222 -495 -242 -75 -26 -171 -30 -236
-12 -114 33 -184 104 -349 352 -189 284 -525 671 -685 789 -69 51 -174 155
-193 191 -44 86 22 248 111 270 13 3 71 -12 137 -36 97 -35 127 -42 195 -42
58 -1 89 4 113 16 41 23 89 72 112 117 21 41 106 297 117 354 9 43 16 48 81
66 46 12 82 55 82 98 0 12 -20 62 -45 110 l-46 87 -3 190 c-3 152 -7 205 -24
265 -32 120 -60 184 -114 267 -174 267 -494 415 -808 373z"/>
<path d="M86 4228 c-54 -32 -81 -71 -79 -116 1 -35 9 -56 81 -212 128 -281
237 -690 272 -1030 14 -138 12 -358 -4 -490 -18 -140 -34 -216 -91 -436 -61
-233 -85 -381 -85 -524 0 -393 190 -755 508 -968 164 -110 332 -177 552 -223
108 -22 135 -24 435 -23 332 0 441 10 725 63 30 6 116 18 190 27 285 34 529
-27 675 -167 l62 -59 82 0 c75 0 84 2 108 26 22 22 25 31 19 71 -21 155 -193
319 -411 394 -216 73 -422 77 -849 14 -330 -48 -417 -55 -633 -55 -286 0 -475
36 -658 125 -341 166 -521 497 -476 873 7 59 37 204 67 323 29 118 62 262 74
320 67 327 67 613 -1 989 -83 463 -280 1001 -394 1076 -43 28 -123 29 -169 2z"/>
</g>
</svg>
